<?xml version="1.0" encoding="UTF-8"?><svg id="Layer_2" xmlns="http://www.w3.org/2000/svg" xmlns:xlink="http://www.w3.org/1999/xlink" viewBox="0 0 270.44 62.32"><defs><style>.cls-1{fill:url(#New_Gradient_Swatch_1);}.cls-1,.cls-2,.cls-3,.cls-4{stroke-width:0px;}.cls-2{fill:url(#linear-gradient);}.cls-3{fill:#3a89aa;}.cls-4{fill:#fff;}</style><linearGradient id="linear-gradient" x1="49.33" y1="43.17" x2="259.75" y2="43.17" gradientUnits="userSpaceOnUse"><stop offset="0" stop-color="#3aaa69"/><stop offset=".52" stop-color="#3aaa9e"/><stop offset=".71" stop-color="#3a9aa4"/><stop offset=".86" stop-color="#3a89aa"/></linearGradient><linearGradient id="New_Gradient_Swatch_1" x1="0" y1="31.16" x2="35.87" y2="31.16" gradientUnits="userSpaceOnUse"><stop offset="0" stop-color="#3aaa69"/><stop offset=".52" stop-color="#3aaa9e"/><stop offset=".71" stop-color="#3a9aa4"/><stop offset=".86" stop-color="#3a89aa"/></linearGradient></defs><g id="Layer_1-2"><path class="cls-3" d="m262.81,34.2h-1.44l.2-.74h3.67l-.2.74h-1.44l-1.02,3.79h-.79l1.02-3.79Z"/><path class="cls-3" d="m266,33.46h.81l.79,2.14,1.94-2.14h.91l-1.21,4.53h-.81l.87-3.25-1.99,2.13h-.03l-.83-2.12-.87,3.23h-.79l1.21-4.53Z"/><path class="cls-2" d="m74.18,27.46h-23.12l-1.73,6.41h7.92l-5.39,19.99h7.35l5.35-19.99h7.92l1.7-6.41Zm14.1,5.54c-1.21,0-2.31.28-3.3.85s-1.84,1.21-2.55,1.94l2.53-9.47h-7.16l-7.35,27.53h7.17l2.9-10.79c.33-1.18.79-2.09,1.4-2.73.6-.64,1.41-.96,2.41-.96.73,0,1.29.19,1.68.57.39.38.58.9.58,1.58,0,.23-.02.49-.06.79-.04.3-.09.59-.17.87l-2.87,10.67h7.16l2.94-11.09c.18-.65.32-1.29.43-1.9.11-.62.17-1.2.17-1.75,0-1.89-.52-3.38-1.57-4.47-1.04-1.09-2.5-1.64-4.36-1.64Zm12.37.45l-5.47,20.4h7.16l5.47-20.4h-7.17Zm9.28-7.13h-7.47l-1.43,5.28h7.47l1.43-5.28Zm14.37,14.33l2.04-7.54c-1.66-.13-3.11.22-4.34,1.04-1.23.82-2.34,1.96-3.32,3.41l1.09-4.11h-7.16l-5.47,20.4h7.17l1.66-6.15c.65-2.44,1.62-4.22,2.88-5.35,1.27-1.13,2.88-1.7,4.85-1.7h.6Zm10.6-2.68c.93,0,1.9.2,2.92.6,1.02.4,1.97.93,2.85,1.58l3.43-4.3c-.93-.75-2.17-1.42-3.71-2-1.55-.58-3.25-.87-5.11-.87-1.41,0-2.67.19-3.77.57-1.11.38-2.04.89-2.79,1.53-.75.64-1.33,1.41-1.73,2.3-.4.89-.6,1.84-.6,2.85,0,.81.14,1.51.43,2.11.29.6.69,1.14,1.21,1.6.52.47,1.12.87,1.83,1.23.7.35,1.46.69,2.26,1.02,1.01.4,1.72.74,2.15,1,.43.26.64.57.64.92,0,.38-.15.68-.45.9-.3.23-.75.34-1.36.34-1.03,0-2.17-.24-3.43-.72-1.26-.48-2.38-1.16-3.36-2.04l-3.54,4.19c1.23,1.11,2.73,1.97,4.49,2.6s3.62.94,5.58.94c1.46,0,2.74-.19,3.85-.58,1.11-.39,2.03-.92,2.77-1.6.74-.68,1.29-1.46,1.66-2.34.36-.88.55-1.81.55-2.79,0-.85-.16-1.59-.47-2.21-.32-.62-.74-1.15-1.26-1.6-.53-.45-1.14-.85-1.83-1.19s-1.4-.66-2.13-.96c-1.06-.43-1.79-.77-2.21-1.02-.41-.25-.62-.55-.62-.91,0-.78.59-1.17,1.77-1.17Zm18.06,8.9c0-.28.06-.69.19-1.24l1.73-6.41h4.75l1.55-5.77h-4.75l1.39-5.17h-7.16l-1.4,5.17h-2.41l-1.55,5.77h2.41l-2.04,7.54c-.13.5-.22.97-.28,1.4-.06.43-.09.86-.09,1.28,0,1.51.51,2.69,1.53,3.54,1.02.86,2.57,1.28,4.66,1.28.73,0,1.45-.06,2.17-.19s1.4-.3,2.06-.53l1.58-5.96c-1.06.38-1.96.57-2.72.57-1.08,0-1.62-.43-1.62-1.28Zm25.68-13.42l-6.86,12.26-.83-12.26h-7.28l2.64,20.1c-.3.3-.59.5-.85.6s-.57.15-.92.15c-.96,0-1.9-.34-2.83-1.02l-3.21,5.24c.7.45,1.48.81,2.34,1.07s1.89.4,3.09.4c1.01,0,1.93-.11,2.77-.34.84-.23,1.65-.58,2.43-1.07.78-.49,1.53-1.13,2.24-1.92.72-.79,1.44-1.77,2.17-2.92l12.63-20.29h-7.54Zm30.28-3.21c-.96-.96-2.16-1.66-3.62-2.11s-3.27-.68-5.43-.68h-8.64l-7.09,26.4h7.35l2.04-7.58h4.34c1.96,0,3.75-.25,5.35-.74,1.61-.49,2.98-1.19,4.13-2.11,1.14-.92,2.04-2.04,2.68-3.36.64-1.32.96-2.8.96-4.43,0-2.21-.69-4.01-2.07-5.39Zm-6.92,9.22c-.99.74-2.39,1.11-4.2,1.11h-2.75l1.85-6.98h2.72c1.41,0,2.45.34,3.13,1.02.5.5.75,1.12.75,1.85,0,1.26-.5,2.26-1.49,3Zm27.98-4.56c-1.5-1.14-3.78-1.72-6.84-1.72-1.48,0-2.92.11-4.32.34-1.39.23-2.63.53-3.71.9l1.02,5.2c.73-.28,1.59-.51,2.58-.72.99-.2,1.97-.3,2.92-.3,1.26,0,2.15.2,2.7.6.54.4.81.93.81,1.58,0,.25-.02.48-.06.68-.04.2-.08.39-.13.57l-.08.26c-.81-.25-1.63-.45-2.49-.58-.86-.14-1.75-.21-2.68-.21-1.36,0-2.58.16-3.68.49-1.09.33-2.04.8-2.83,1.43-.79.63-1.4,1.38-1.83,2.26-.43.88-.64,1.89-.64,3.02,0,1.71.53,3.06,1.58,4.05,1.06.99,2.43,1.49,4.11,1.49,1.21,0,2.27-.23,3.19-.7.92-.46,1.82-1.1,2.7-1.9l-.57,2.19h7.05l3.02-11.24c.28-1.06.41-2.04.41-2.94,0-2.04-.75-3.63-2.24-4.77Zm-6.05,11.26c-.28,1.06-.81,1.94-1.6,2.64-.79.7-1.65,1.06-2.58,1.06-.6,0-1.09-.17-1.47-.51-.38-.34-.57-.8-.57-1.38,0-.93.34-1.65,1.02-2.17.68-.51,1.58-.77,2.72-.77.5,0,.97.04,1.41.13.44.09.86.2,1.26.32l-.19.68Zm28.28-12.71l-6.86,12.26-.83-12.26h-7.28l2.64,20.1c-.3.3-.59.5-.85.6s-.57.15-.92.15c-.96,0-1.9-.34-2.83-1.02l-3.21,5.24c.7.45,1.48.81,2.34,1.07s1.89.4,3.09.4c1.01,0,1.93-.11,2.77-.34.84-.23,1.65-.58,2.43-1.07.78-.49,1.53-1.13,2.24-1.92.72-.79,1.44-1.77,2.17-2.92l12.63-20.29h-7.54Z"/><path class="cls-1" d="m35.87,44.39c0,9.91-8.03,17.93-17.93,17.93S0,54.29,0,44.39C0,38.48,0,26.04,12.34,0c7.76,21.52,23.53,34.48,23.53,44.39Z"/><path class="cls-4" d="m20.35,30.4c.65.05,1.27.18,1.84.32,3.85.9,4.7,2.35,4.75,3.73s-.74,2.77-2.38,2.83-2.1-1.11-4.37-1.64l-.17,3.9c3.81.97,7.84,2.66,8,7.2.15,4.31-3.48,6.38-7.62,6.98l.02.69c.03.92.05,1.41-.35,1.96-.33.43-.85.79-2.11.84s-1.8-.28-2.16-.69c-.44-.52-.5-1.13-.46-2.16l.02-.53c-.88-.08-1.69-.21-2.46-.41-3.89-.93-4.75-2.58-4.79-3.92-.05-1.45.82-2.74,2.46-2.8,1.68-.06,2.18,1.34,4.95,1.85l.12-4.28c-3.81-.97-7.88-2.59-8.03-7.01-.15-4.31,3.52-6.34,7.74-6.87l-.03-.8c-.03-.91-.05-1.41.35-1.96.33-.43.85-.79,2.11-.84s1.8.28,2.16.69c.44.52.5,1.13.46,2.16l-.05.76Zm-4.72,8.1l-.1-2.97c-1.82.29-2.22.92-2.2,1.41.03.72.92,1.19,2.31,1.56Zm4.48,6.94l.11,3.09c1.67-.29,2.07-.91,2.05-1.41-.03-.76-.88-1.27-2.16-1.68Z"/></g></svg>