<svg width="3423" height="448" viewBox="0 0 3423 448" fill="none" xmlns="http://www.w3.org/2000/svg">
<path d="M3265.73 1.60928L3265.42 1.36956L3265.11 1.60874L3253.75 10.4477L3241.2 3.49118L3240.86 3.30193L3240.6 3.58699L3230.78 14.0876L3217.26 9.1835L3216.89 9.05043L3216.67 9.37409L3208.65 21.279L3194.52 18.5501L3194.13 18.4761L3193.97 18.8297L3187.9 31.8467L3173.52 31.3579L3173.13 31.3447L3173.02 31.7201L3169.07 45.5271L3154.82 47.2906L3154.43 47.3384L3154.38 47.7245L3152.59 61.9848L3138.78 65.9564L3138.41 66.0642L3138.42 66.4539L3138.91 80.8157L3125.92 86.9006L3125.56 87.0658L3125.64 87.4484L3128.37 101.553L3116.47 109.598L3116.15 109.816L3116.28 110.182L3121.17 123.688L3110.66 133.501L3110.38 133.767L3110.57 134.108L3117.53 146.678L3108.69 158.008L3108.45 158.316L3108.69 158.623L3117.53 169.955L3110.57 182.528L3110.38 182.869L3110.66 183.136L3121.17 192.944L3116.28 206.45L3116.15 206.816L3116.47 207.034L3128.37 215.079L3125.64 229.188L3125.56 229.571L3125.92 229.736L3138.91 235.817L3138.42 250.178L3138.41 250.568L3138.78 250.676L3152.59 254.647L3154.38 268.908L3154.43 269.294L3154.82 269.342L3169.07 271.105L3173.02 284.912L3173.13 285.288L3173.52 285.274L3187.9 284.786L3193.97 297.802L3194.13 298.156L3194.52 298.082L3208.65 295.353L3216.67 307.258L3216.89 307.582L3217.26 307.449L3230.78 302.545L3240.6 313.045L3240.86 313.33L3241.2 313.141L3253.75 306.188L3265.11 315.023L3265.42 315.262L3265.73 315.023L3277.05 306.189L3289.59 313.141L3289.94 313.33L3290.2 313.045L3300.02 302.545L3313.54 307.449L3313.91 307.582L3314.13 307.258L3322.15 295.353L3336.28 298.082L3336.67 298.156L3336.83 297.802L3342.9 284.786L3357.28 285.274L3357.67 285.288L3357.78 284.912L3361.73 271.105L3375.98 269.342L3376.37 269.294L3376.42 268.906L3378.17 254.647L3392.02 250.676L3392.39 250.568L3392.38 250.178L3391.89 235.817L3404.88 229.736L3405.24 229.571L3405.16 229.188L3402.43 215.079L3414.33 207.034L3414.65 206.816L3414.52 206.45L3409.63 192.944L3420.14 183.136L3420.42 182.869L3420.23 182.528L3413.27 169.955L3422.11 158.623L3422.35 158.316L3422.11 158.008L3413.27 146.678L3420.23 134.108L3420.42 133.767L3420.14 133.501L3409.63 123.688L3414.52 110.182L3414.65 109.816L3414.33 109.598L3402.43 101.553L3405.16 87.4484L3405.24 87.0658L3404.88 86.9006L3391.89 80.8157L3392.38 66.4539L3392.39 66.0638L3392.02 65.9563L3378.17 61.9848L3376.42 47.7259L3376.37 47.3385L3375.98 47.2906L3361.73 45.5271L3357.78 31.7201L3357.67 31.3447L3357.28 31.3579L3342.9 31.8467L3336.83 18.8297L3336.67 18.4761L3336.28 18.5501L3322.15 21.279L3314.13 9.3741L3313.91 9.05043L3313.54 9.1835L3300.02 14.0876L3290.2 3.58699L3289.94 3.30193L3289.59 3.49118L3277.05 10.4474L3265.73 1.60928Z" fill="#17567E" stroke="black"/>
<path d="M3149.21 121.366H3148.71V121.866V198.77V199.27H3149.21H3167H3167.5V198.77V178.066H3182.5C3189.35 178.066 3195.38 176.963 3200.5 174.618C3205.54 172.386 3209.45 169.138 3212.26 164.768C3215.07 160.497 3216.38 155.452 3216.38 149.77C3216.38 143.98 3215.07 138.938 3212.25 134.666C3209.45 130.405 3205.54 127.16 3200.51 124.817L3200.5 124.816C3195.38 122.47 3189.35 121.366 3182.5 121.366H3149.21ZM3181.5 162.566H3167.5V136.866H3181.5C3186.82 136.866 3190.77 137.957 3193.39 140.157L3193.39 140.157C3196.01 142.348 3197.38 145.603 3197.38 149.77C3197.38 153.932 3196.01 156.967 3193.39 159.166C3190.76 161.371 3186.81 162.566 3181.5 162.566Z" fill="white" stroke="black"/>
<path d="M3295.54 199.274H3296.5L3295.95 198.488L3279.05 174.263C3283.91 172.041 3287.75 168.882 3290.46 164.773C3293.28 160.608 3294.63 155.56 3294.63 149.77C3294.63 143.977 3293.28 138.936 3290.46 134.666C3287.66 130.405 3283.75 127.16 3278.71 124.817L3278.71 124.816C3273.59 122.47 3267.6 121.366 3260.71 121.366H3227.42H3226.92V121.866V198.774V199.274H3227.42H3245.21H3245.71V198.774V177.849H3261.32L3276.01 199.059L3276.16 199.274H3276.42H3295.54ZM3271.6 159.274L3271.6 159.275C3268.97 161.48 3265.06 162.674 3259.71 162.674H3245.71V136.866H3259.71C3265.07 136.866 3268.98 137.956 3271.6 140.157C3274.21 142.352 3275.59 145.603 3275.59 149.77C3275.59 153.937 3274.22 157.082 3271.6 159.274Z" fill="white" stroke="black"/>
<path d="M3366.11 195.37L3366.12 195.369C3372.53 191.919 3377.68 187.023 3381.35 180.903C3385.02 174.781 3386.92 167.987 3386.92 160.32C3386.92 152.65 3385.02 145.748 3381.35 139.625C3377.67 133.502 3372.52 128.716 3366.11 125.271L3366.11 125.271C3359.66 121.821 3352.41 120.045 3344.34 120.045C3336.22 120.045 3329.01 121.821 3322.56 125.27C3315.98 128.717 3311 133.506 3307.32 139.625C3303.65 145.748 3301.75 152.65 3301.75 160.32C3301.75 167.987 3303.65 174.781 3307.32 180.903C3310.99 187.018 3315.98 191.917 3322.56 195.371C3329.01 198.815 3336.22 200.591 3344.34 200.591C3352.41 200.591 3359.66 198.815 3366.11 195.37ZM3323.9 172.818L3323.9 172.818C3321.86 169.163 3320.75 164.964 3320.75 160.32C3320.75 155.677 3321.86 151.478 3323.9 147.818C3325.94 144.154 3328.71 141.26 3332.25 139.221C3335.83 137.182 3339.91 136.208 3344.34 136.208C3348.76 136.208 3352.84 137.183 3356.38 139.22C3359.93 141.263 3362.82 144.16 3364.86 147.818L3364.86 147.821C3366.93 151.469 3367.88 155.664 3367.88 160.32C3367.88 164.977 3366.93 169.171 3364.86 172.815L3364.86 172.818C3362.82 176.471 3359.93 179.266 3356.38 181.312C3352.83 183.353 3348.75 184.429 3344.34 184.429C3339.92 184.429 3335.84 183.354 3332.25 181.311C3328.71 179.269 3325.94 176.477 3323.9 172.818Z" fill="white" stroke="black"/>
<path d="M24.1689 388.704H94.6402L146.031 196.82H222.099L238.381 135.233H16.5366L0 196.82H76.0683L24.1689 388.704ZM202.764 388.704H271.454L299.439 285.127C302.492 273.675 307.072 265.023 312.923 258.915C318.774 252.807 326.407 249.753 336.074 249.753C342.943 249.753 348.54 251.535 352.102 255.098C355.918 258.66 357.699 263.75 357.699 270.367C357.699 272.657 357.445 274.948 357.19 278.002C356.936 280.801 356.173 283.6 355.664 286.4L328.188 388.959H396.878L424.863 282.328C426.644 275.966 427.916 269.858 428.933 264.005C429.951 258.151 430.46 252.553 430.46 247.208C430.46 229.14 425.372 214.888 415.45 204.2C405.528 193.766 391.535 188.422 373.727 188.422C362.024 188.422 351.593 191.221 342.18 196.565C332.767 201.909 324.626 208.272 317.757 215.143L341.926 124.29H273.235L202.764 388.704ZM440.128 388.704H508.818L561.226 193.002H492.536L440.128 388.704ZM496.097 175.188H567.841L581.579 124.545H509.836L496.097 175.188ZM554.612 388.704H623.302L639.33 329.663C645.69 306.25 654.849 289.199 667.06 278.256C679.272 267.313 694.791 261.969 713.617 261.969H719.469L739.058 189.694C723.03 188.422 709.292 191.73 697.335 199.619C685.632 207.508 674.947 218.451 665.534 232.448L675.965 193.002H607.274L554.612 388.704ZM845.401 387.941C856.086 384.123 864.99 379.034 872.114 372.671C879.237 366.055 884.58 358.674 888.142 350.276C891.703 341.878 893.484 332.971 893.484 323.555C893.484 315.411 891.958 308.286 888.905 302.432C885.852 296.579 881.781 291.489 876.693 287.163C871.605 282.837 865.754 279.019 859.139 275.711C852.524 272.403 845.655 269.349 838.786 266.55C828.61 262.478 821.487 259.169 817.67 256.879C813.6 254.589 811.819 251.535 811.819 248.226C811.819 240.846 817.416 237.029 828.864 237.029C837.769 237.029 847.182 239.065 856.849 242.882C866.517 246.699 875.676 251.789 884.071 258.151L916.89 216.924C907.986 209.799 896.028 203.182 881.273 197.838C866.517 192.239 849.98 189.439 832.172 189.439C818.688 189.439 806.476 191.221 796.046 194.784C785.361 198.347 776.456 203.182 769.333 209.544C762.209 215.652 756.612 223.032 752.796 231.685C748.98 240.337 746.945 249.244 746.945 258.915C746.945 266.55 748.217 273.421 751.015 279.274C753.814 285.127 757.63 290.217 762.718 294.543C767.552 299.124 773.403 302.941 780.272 306.25C787.141 309.558 794.265 312.867 801.897 315.92C811.565 319.738 818.434 323.046 822.504 325.591C826.575 328.136 828.61 331.19 828.61 334.498C828.61 338.061 827.084 341.115 824.285 343.151C821.487 345.441 817.162 346.459 811.31 346.459C801.388 346.459 790.449 344.169 778.491 339.588C766.534 335.007 755.595 328.39 746.182 319.992L712.091 360.201C723.794 370.89 738.295 379.034 755.086 385.141C771.877 391.249 789.94 394.303 808.766 394.303C822.25 393.539 834.716 391.503 845.401 387.941ZM1006.95 390.995C1013.82 389.722 1020.43 388.195 1026.79 385.905L1042.06 328.645C1031.88 332.208 1023.23 333.989 1016.11 333.989C1005.68 333.989 1000.59 329.917 1000.59 321.774C1000.59 319.229 1001.1 315.157 1002.37 309.813L1018.91 248.226H1064.45L1079.2 192.748H1033.66L1047.15 143.123H978.457L964.973 192.748H941.822L927.066 248.226H950.218L930.628 320.501C929.356 325.336 928.593 329.917 927.829 333.989C927.321 338.061 926.812 342.133 926.812 346.205C926.812 360.71 931.646 371.908 941.568 380.306C951.235 388.45 966.245 392.521 986.344 392.521C992.958 392.776 1000.08 392.267 1006.95 390.995ZM1136.95 444.437C1145.09 442.147 1152.73 438.838 1160.36 434.003C1167.74 429.422 1175.11 423.06 1181.98 415.425C1188.85 407.791 1195.72 398.375 1202.85 387.432L1323.94 192.748H1251.69L1185.55 310.576L1177.66 193.002H1107.7L1133.14 385.905C1130.34 388.704 1127.54 390.74 1125 391.758C1122.45 392.776 1119.4 393.285 1116.09 393.285C1106.93 393.285 1097.77 389.977 1088.87 383.614L1058.34 433.749C1065.21 438.075 1072.59 441.638 1080.73 444.183C1088.87 446.728 1098.79 448 1110.5 448C1119.91 447.746 1128.81 446.728 1136.95 444.437ZM1425.96 288.945L1473.28 216.161L1482.44 288.945H1425.96ZM1283.75 388.704H1360.07L1390.35 343.405H1488.29L1494.4 388.704H1568.18L1528.74 133.452H1460.05L1283.75 388.704ZM1597.94 388.704H1666.63L1704.54 248.226H1747.28L1761.78 194.02H1717.51L1718.53 190.712C1720.31 184.35 1723.11 179.769 1726.93 176.715C1730.74 173.661 1736.09 172.134 1743.21 172.134C1746.52 172.134 1750.33 172.643 1754.66 173.407C1758.98 174.17 1762.8 175.188 1766.36 176.461L1779.08 128.362C1772.47 126.072 1765.85 124.545 1758.73 123.527C1751.61 122.509 1743.72 122 1735.32 122C1712.94 122 1694.87 127.09 1681.13 137.524C1667.4 147.958 1657.47 165.009 1651.37 188.93L1650.35 193.002H1627.45L1612.7 248.481H1635.85L1597.94 388.704ZM1761.78 388.704H1830.47L1868.38 248.226H1911.12L1925.62 194.02H1881.35L1882.37 190.712C1884.15 184.35 1886.95 179.769 1890.77 176.715C1894.58 173.661 1899.93 172.134 1907.05 172.134C1910.36 172.134 1914.17 172.643 1918.5 173.407C1922.82 174.17 1926.64 175.188 1930.2 176.461L1942.92 128.362C1936.31 126.072 1929.69 124.545 1922.57 123.527C1915.45 122.509 1907.56 122 1899.16 122C1876.78 122 1858.71 127.09 1844.97 137.524C1831.24 147.958 1821.31 165.009 1815.21 188.93L1814.19 193.002H1791.29L1776.54 248.481H1799.69L1761.78 388.704ZM1916.72 388.704H1985.41L2037.82 193.002H1969.13L1916.72 388.704ZM1972.94 175.188H2044.68L2058.42 124.545H1986.68L1972.94 175.188ZM2025.6 388.704H2094.29L2165.27 124.545H2096.58L2025.6 388.704ZM2141.87 388.704H2210.56L2262.97 193.002H2194.28L2141.87 388.704ZM2197.84 175.188H2269.58L2283.32 124.545H2211.58L2197.84 175.188ZM2329.62 345.441C2326.06 342.133 2324.28 337.806 2324.28 332.208C2324.28 323.301 2327.59 316.429 2333.95 311.34C2340.56 306.504 2349.21 303.959 2359.9 303.959C2364.73 303.959 2369.31 304.468 2373.38 305.232C2377.71 305.995 2381.52 307.013 2385.59 308.286L2383.81 314.902C2381.27 325.082 2375.93 333.48 2368.55 340.351C2360.92 347.222 2352.77 350.531 2343.87 350.531C2338.02 350.276 2333.18 348.749 2329.62 345.441ZM2342.6 386.159C2351.5 381.578 2359.9 375.725 2368.55 367.836L2363.2 388.704H2430.88L2459.88 280.801C2462.42 270.621 2463.95 261.205 2463.95 252.553C2463.95 232.957 2456.83 217.688 2442.33 206.745C2428.08 195.802 2406.2 190.203 2376.69 190.203C2362.44 190.203 2348.7 191.221 2335.22 193.511C2321.74 195.802 2310.03 198.601 2299.6 202.164L2309.27 252.044C2316.14 249.499 2324.53 247.208 2333.95 245.172C2343.36 243.137 2352.77 242.373 2361.93 242.373C2373.89 242.373 2382.54 244.409 2387.88 248.226C2392.97 252.044 2395.77 257.133 2395.77 263.496C2395.77 265.786 2395.51 268.077 2395.26 270.112C2395.01 272.148 2394.5 273.93 2393.99 275.457L2393.22 278.002C2385.59 275.711 2377.45 273.675 2369.31 272.403C2361.17 271.13 2352.52 270.367 2343.62 270.367C2330.64 270.367 2318.94 271.894 2308.25 274.948C2297.82 278.002 2288.66 282.582 2281.03 288.69C2273.4 294.798 2267.55 301.923 2263.48 310.322C2259.41 318.72 2257.37 328.39 2257.37 339.333C2257.37 355.875 2262.46 368.6 2272.64 378.27C2282.81 387.686 2295.79 392.521 2312.07 392.521C2323.52 392.776 2333.69 390.485 2342.6 386.159ZM2576.65 390.995C2583.52 389.722 2590.14 388.195 2596.24 385.905L2611.51 328.645C2601.33 332.208 2592.68 333.989 2585.56 333.989C2575.13 333.989 2570.04 329.917 2570.04 321.774C2570.04 319.229 2570.55 315.157 2571.82 309.813L2588.36 248.226H2633.9L2648.65 192.748H2603.11L2616.6 143.123H2547.91L2534.42 192.748H2511.27L2496.52 248.226H2519.67L2500.08 320.501C2498.8 325.336 2498.04 329.917 2497.28 333.989C2496.77 338.061 2496.52 342.133 2496.52 346.205C2496.52 360.71 2501.35 371.908 2511.27 380.306C2520.94 388.45 2535.95 392.521 2556.05 392.521C2562.66 392.776 2569.79 392.267 2576.65 390.995ZM2718.61 274.693C2722.68 262.987 2728.79 254.08 2737.19 247.972C2745.58 242.119 2754.23 239.065 2763.39 239.065C2772.55 239.065 2779.16 241.61 2783.74 246.445C2788.07 251.28 2790.36 257.133 2790.36 264.005C2790.36 267.313 2789.85 270.876 2788.58 274.439H2718.61V274.693ZM2843.78 309.813C2846.33 303.45 2848.11 297.088 2849.38 289.963C2850.65 283.091 2851.42 276.22 2851.42 269.603C2851.42 258.915 2849.89 248.735 2846.58 239.065C2843.27 229.394 2838.44 220.742 2831.57 213.107C2824.7 205.727 2816.05 199.619 2805.62 195.293C2795.19 190.712 2782.73 188.676 2768.22 188.676C2750.16 188.676 2733.88 192.239 2719.38 199.11C2704.88 205.981 2692.41 214.888 2682.23 226.086C2672.06 237.283 2664.17 249.753 2658.83 264.005C2653.49 278.002 2650.69 292.507 2650.69 307.013C2650.69 320.247 2652.72 332.208 2657.3 342.896C2661.63 353.585 2667.73 362.746 2675.62 370.126C2683.51 377.507 2693.43 383.614 2704.88 387.686C2716.58 391.758 2729.55 393.794 2744.06 393.794C2761.1 393.794 2776.37 390.995 2789.34 385.65C2802.31 380.306 2814.02 373.18 2824.19 364.528L2792.39 326.863C2785.01 332.462 2777.89 336.279 2771.28 338.824C2764.66 341.115 2757.79 342.387 2750.92 342.387C2738.97 342.387 2730.32 339.588 2724.21 333.735C2718.36 327.881 2715.05 319.992 2714.29 310.322H2843.78V309.813ZM2982.18 387.941C2992.87 384.123 3001.52 379.034 3008.89 372.671C3016.02 366.055 3021.36 358.674 3024.92 350.276C3028.48 341.878 3030.27 332.971 3030.27 323.555C3030.27 315.411 3028.74 308.286 3025.69 302.432C3022.63 296.579 3018.56 291.489 3013.47 287.163C3008.39 282.837 3002.53 279.019 2995.92 275.711C2989.31 272.403 2982.44 269.349 2975.57 266.55C2965.39 262.478 2958.27 259.169 2954.45 256.879C2950.38 254.589 2948.6 251.535 2948.6 248.226C2948.6 240.846 2954.2 237.029 2965.65 237.029C2974.55 237.029 2983.96 239.065 2993.63 242.882C3003.3 246.699 3012.46 251.789 3020.85 258.151L3053.67 216.924C3044.77 209.799 3032.81 203.182 3018.05 197.838C3003.3 192.239 2986.76 189.439 2968.95 189.439C2955.47 189.439 2943.51 191.221 2932.83 194.784C2922.14 198.347 2913.24 203.182 2906.11 209.544C2898.99 215.652 2893.39 223.032 2889.58 231.685C2885.76 240.337 2883.73 249.244 2883.73 258.915C2883.73 266.55 2885 273.421 2887.8 279.274C2890.59 285.127 2894.41 290.217 2899.5 294.543C2904.33 299.124 2910.18 302.941 2917.05 306.25C2923.92 309.558 2931.05 312.867 2938.68 315.92C2948.35 319.738 2955.21 323.046 2959.28 325.591C2963.36 328.136 2965.39 331.19 2965.39 334.498C2965.39 338.061 2963.86 341.115 2961.07 343.151C2958.27 345.441 2953.69 346.459 2948.09 346.459C2938.17 346.459 2927.23 344.169 2915.27 339.588C2903.32 335.007 2892.38 328.39 2882.96 319.992L2848.87 360.201C2860.83 370.89 2875.08 379.034 2891.87 385.141C2908.66 391.249 2926.72 394.303 2945.55 394.303C2959.03 393.539 2971.5 391.503 2982.18 387.941Z" fill="url(#paint0_linear_1020_738)"/>
<defs>
<linearGradient id="paint0_linear_1020_738" x1="0" y1="285.145" x2="3053.82" y2="285.145" gradientUnits="userSpaceOnUse">
<stop stop-color="#3AAA69"/>
<stop offset="0.52" stop-color="#3AAA9E"/>
<stop offset="0.71" stop-color="#3A9AA4"/>
<stop offset="0.86" stop-color="#3A89AA"/>
</linearGradient>
</defs>
</svg>
